# xmcd
#
# Track frame offsets:
#	150
#	19087
#	65267
#	102877
#
# Disc length: 1784 seconds
#
# Revision: 1
# Processed by: cddbd v1.5.2PL0 Copyright (c) Steve Scherf et al.
# Submitted via: audiograbber 1.83.01
#
DISCID=2806f604
DTITLE=Satoshi Tomiie Presents Shellshock - K-Jee
DYEAR=1996
DGENRE=House
TTITLE0=K-Jee (Radio Mix)
TTITLE1=K-Jee (Main Mix)
TTITLE2=K-Jee (The Bomb Dub)
TTITLE3=K-Jee (Bonus Bass)
EXTD=
EXTT0=
EXTT1=
EXTT2=
EXTT3=
PLAYORDER=
